<svg height="512" viewBox="0 0 128 128" width="512" xmlns="http://www.w3.org/2000/svg" xmlns:xlink="http://www.w3.org/1999/xlink"><linearGradient id="a" gradientUnits="userSpaceOnUse" x1="114.933" x2="6.832" y1="111.792" y2="3.691"><stop offset="0" stop-color="#f7502f"/><stop offset="1" stop-color="#fcbc2e"/></linearGradient><path d="m115.122 61.987-1.3 3.692a1.75 1.75 0 0 1 -3.3-1.158l1.3-3.692a1.75 1.75 0 0 1 3.3 1.158zm7.688-21.918-5.557 15.84a1.75 1.75 0 0 1 -3.3-1.158l5.556-15.84a4.252 4.252 0 0 0 -4.009-5.661h-86.613l6.343 51.362 67.449-5.376a4.272 4.272 0 0 0 3.679-2.838l2.009-5.727a1.75 1.75 0 0 1 3.3 1.158l-2.007 5.731a7.78 7.78 0 0 1 -6.7 5.165l-67.96 5.417-5.257 16.033a4.252 4.252 0 0 0 4.037 5.575h2.806a11.744 11.744 0 0 1 14.91-9.528 1.75 1.75 0 1 1 -.981 3.359 8.252 8.252 0 1 0 5.926 7.925v-.012a8.178 8.178 0 0 0 -.843-3.632 1.75 1.75 0 0 1 3.14-1.545 11.594 11.594 0 0 1 1.062 3.433h23.03a11.734 11.734 0 0 1 23.21 0h6.714a1.75 1.75 0 0 1 0 3.5h-6.714a11.734 11.734 0 0 1 -23.21 0h-23.03a11.734 11.734 0 0 1 -23.21 0h-2.81a7.751 7.751 0 0 1 -7.363-10.164l5.5-16.765-9.3-75.313-16.411-2.782a1.751 1.751 0 1 1 .585-3.452l17.69 3a1.751 1.751 0 0 1 1.444 1.511l2.53 20.465h10.245v-7.17a1.75 1.75 0 0 1 1.75-1.75h18.34a1.75 1.75 0 0 1 1.75 1.75v7.17h1.71v-12.17a1.75 1.75 0 0 1 1.75-1.75h.58v-2.3h-14.83v2.345a1.75 1.75 0 0 1 -3.5 0v-4.1a1.75 1.75 0 0 1 1.75-1.745h18.33a1.75 1.75 0 0 1 1.75 1.75v4.05h14.25a1.75 1.75 0 0 1 1.75 1.75v3.462l12.654 3.563a1.75 1.75 0 0 1 1.21 2.161l-.844 2.984h18.4a7.752 7.752 0 0 1 7.312 10.319zm-36.629 71.431a8.25 8.25 0 0 0 16.5 0 8.25 8.25 0 0 0 -16.5 0zm7.919-84-14.279-4.021-1.762 6.271h15.406zm-28.35 2.25h8.674l2.5-8.9a1.75 1.75 0 0 1 2.159-1.211l1.5.421v-.73h-14.833zm-23.55 0h14.84v-5.42h-14.84zm6.682 51.26q.071 0 .141-.006l8.282-.66a1.75 1.75 0 1 0 -.278-3.489l-8.282.661a1.75 1.75 0 0 0 .137 3.494zm5.058 30.49a5.75 5.75 0 1 1 -5.75-5.75 5.756 5.756 0 0 1 5.75 5.75zm-3.5 0a2.25 2.25 0 1 0 -2.25 2.25 2.253 2.253 0 0 0 2.25-2.25zm38.241 0a5.75 5.75 0 1 1 5.75 5.75 5.756 5.756 0 0 1 -5.75-5.75zm3.5 0a2.25 2.25 0 1 0 2.25-2.25 2.253 2.253 0 0 0 -2.25 2.25zm-42.772-45.083v-20a1.75 1.75 0 0 0 -3.5 0v20a1.75 1.75 0 0 0 3.5 0zm9.818-20a1.75 1.75 0 0 0 -3.5 0v20a1.75 1.75 0 0 0 3.5 0zm6.318 0v20a1.75 1.75 0 0 0 3.5 0v-20a1.75 1.75 0 0 0 -3.5 0zm9.818 0v20a1.75 1.75 0 0 0 3.5 0v-20a1.75 1.75 0 0 0 -3.5 0zm9.818 0v20a1.75 1.75 0 0 0 3.5 0v-20a1.75 1.75 0 0 0 -3.5 0zm9.817 0v20a1.75 1.75 0 0 0 3.5 0v-20a1.75 1.75 0 0 0 -3.5 0z" fill="url(#a)"/></svg>